<svg xmlns="http://www.w3.org/2000/svg" viewBox="0 0 256 289">
  <path fill="#FAE501" d="M87.333 200.777c-15.411 0-27.933-12.522-27.933-27.933s12.522-27.934 27.933-27.934c15.41 0 27.934 12.522 27.934 27.934 0 15.41-12.523 27.933-27.934 27.933zm0-83.8c-15.411 0-27.933-12.523-27.933-27.934s12.522-27.933 27.933-27.933c15.41 0 27.934 12.522 27.934 27.933 0 15.411-12.523 27.933-27.934 27.933zm83.8-27.934c-15.41 0-27.933 12.522-27.933 27.934 0 15.41 12.522 27.933 27.933 27.933 15.41 0 27.934-12.522 27.934-27.933 0-15.412-12.523-27.934-27.934-27.934z"/>
  <path fill="#4FB5E1" d="M171.133 200.777c-15.41 0-27.933-12.522-27.933-27.933 0-7.362 2.875-14.055 7.541-19.04-4.666-4.986-7.54-11.679-7.54-19.04 0-15.412 12.521-27.934 27.932-27.934 15.41 0 27.934 12.522 27.934 27.933 0 7.362-2.875 14.055-7.541 19.04 4.666 4.986 7.54 11.679 7.54 19.04 0 15.411-12.522 27.934-27.933 27.934z"/>
  <path fill="#F05751" d="M87.334 89.043c7.36 0 14.055 2.874 19.04 7.54 4.985-4.666 11.68-7.54 19.04-7.54 15.41 0 27.933 12.522 27.933 27.933 0 15.41-12.522 27.934-27.933 27.934-7.361 0-14.055-2.875-19.04-7.541-4.986 4.666-11.68 7.54-19.04 7.54-15.411 0-27.933-12.522-27.933-27.933 0-15.41 12.522-27.933 27.933-27.933z"/>
  <path fill="#0681B6" d="M87.334 172.844c7.36 0 14.055 2.874 19.04 7.54 4.985-4.666 11.68-7.54 19.04-7.54 15.41 0 27.933 12.522 27.933 27.933 0 15.41-12.522 27.934-27.933 27.934-7.361 0-14.055-2.875-19.04-7.541-4.986 4.666-11.68 7.54-19.04 7.54-15.411 0-27.933-12.522-27.933-27.933 0-15.41 12.522-27.933 27.933-27.933z"/>
</svg>

