<svg xmlns="http://www.w3.org/2000/svg" viewBox="0 0 128 128">
  <path fill="#764ABC" d="M88.69 88.11c-9 18.4-24.76 30.78-45.91 34.85-14.43 2.76-29.45-.6-39.37-10.76-9.21-9.44-12-23.79-6.18-36.67-15.64-1.29-24.45-17.78-14-30.31C-10.4 34.41 5.78 25.2 25.12 22.37c15.23-2.21 30.18 3.32 38.48 16.49 7.47-6.19 10.74-5.48 28.6-4.45 18.29 1.03 22.69 15.46 21.21 24.4-2.56 15.39-8.33 25.53-24.72 29.3zM45.84 23.81c-5.28 6.4-8.91 13.68-10.88 21.43-7.88-.93-16.44-1.15-27.18 2.2 1.15-13.32 14.12-25.33 38.06-23.63zm-2.88 92.92c-17.4 1.85-35-5.1-37.53-21.54-1.27-8.25 2.64-14.96 7.79-19.69 8.76-8.1 21.85-9.22 34.77-9.22 2.87 13.06 7.1 26.7 13.89 39.45-5.97 5.38-12.4 9.5-18.92 11zM86.6 72.89c-.19 11.68-2.5 22.43-7.29 32.33-12-14.37-18.86-29.82-22.27-46.04 1.24-.21 2.49-.39 3.77-.55 16.63-1.97 28.45 4.67 25.79 14.26z"/>
  <path fill="#764ABC" d="M70.95 84.53c-7.1-4.22-8.89-12.24-7.34-19.29 1.77-8.03 9.83-14.32 16.48-14.32 8.43 0 15.26 8.01 14.85 16.54-.44 9.09-6.24 20.23-24.04 17.06l.05.01zm1.78-24.93c-8.7 1.86-9.04 11.25-5.51 16.99 2.03 3.32 4.75 5.77 9.48 5.09 4.73-.68 8.35-3.16 9.87-7.15 1.72-4.5-.05-9.08-4.56-11.81-3.32-2.01-6.63-3.57-9.27-3.12h-.01z"/>
</svg>

