<svg xmlns="http://www.w3.org/2000/svg" viewBox="0 0 24 24" width="24" height="24">
  <path fill="#21759B" d="M12 2C6.486 2 2 6.486 2 12s4.486 10 10 10 10-4.486 10-10S17.514 2 12 2zm0 19.5c-5.247 0-9.5-4.253-9.5-9.5S6.753 2.5 12 2.5s9.5 4.253 9.5 9.5-4.253 9.5-9.5 9.5zm-4.4-4.905l2.61-7.61c.44-1.104.555-1.986.555-2.76 0-.284-.02-.546-.06-.787.64.06 1.2.19 1.2.19.58.05.64.42.11.98l-2.57 7.87c-.768-.206-1.499-.498-2.173-.863l.328-.03zm10.44-6.095c0-.857-.307-1.45-.57-1.913-.35-.57-.68-1.05-.68-1.62 0-.635.48-1.227 1.16-1.227.03 0 .06.002.09.004-1.24-1.14-2.89-1.835-4.7-1.835-2.435 0-4.57 1.25-5.82 3.137.164.005.318.008.45.008.73 0 1.86-.088 1.86-.088.38-.022.42.53.05.91l.56.165c-.38.022-.73.33-1.1.33l3.32.99.99 2.95-1.39 4.18-2.32-6.9c.38-.02.73-.33 1.1-.33l.56-.165c.38-.022.42-.932.05-.91 0 0 1.15.088 1.83.088.73 0 1.86-.088 1.86-.088.38-.022.42.53.05.91l.56.165c-.38.022-.73.33-1.1.33l3.29.98.36 1.22c.16.5.25 1.1.25 1.71zm-3.95 1.268l-2.75 7.98c.82.24 1.69.37 2.59.37 1.07 0 2.1-.186 3.05-.53-.02-.038-.05-.074-.07-.115l-2.82-7.705z"/>
</svg>

